<svg viewBox="0 0 25 25"><title>Forsera Games</title><path fill="#fed944" class="cls-1" d="M30.83,34.21a37.56,37.56,0,0,1-17.68-7.65C10,24.07,7,20.83,5.51,17,3.9,12.82,4.93,7.8,9.44,6c-6.51,7.82,3.15,16.28,9.39,20.08a32.83,32.83,0,0,0,20.59,5.09,53,53,0,0,1-16.7-5.82A39.64,39.64,0,0,1,17.82,22c-2.5-1.93-5.13-4.12-6.62-7a6.76,6.76,0,0,1,1-8.08c2.52-2.38,6-1.93,9.12-1.56A40.17,40.17,0,0,1,34.08,9,31,31,0,0,1,47.27,20.67,43.1,43.1,0,0,0,33.61,6.21C30.56,4.22,23.82.12,14.81,0,11.22,0,7.5.62,4.55,2.78A11.35,11.35,0,0,0,0,11.58c-.28,7.21,5,13.48,10.51,17.48,1.19.86,2.51,1.67,2.51,1.67.92.56,1.74,1,2.41,1.35-.33.73-.81,1.72-1.43,2.86,0,0-.77,1.39-1.49,2.5-2,3-4.59,6.12-8.11,7.4,3.06.7,6.34-1.31,8.45-3.34a20.68,20.68,0,0,0,5.08-8.24c.95.44,2,.87,3.07,1.28s2,.71,2.91,1c0,.16,0,.4-.08.7-.08.65-.19,1.13-.21,1.24a17.37,17.37,0,0,0-.12,3c.16,3.17,1.73,7.89,5.54,8.15-3.58-2.89-2.92-8.38-2.17-12.37,5.65,1.25,11.43.92,16.39-2.23A37.65,37.65,0,0,1,30.83,34.21Z"/></svg>